<svg width="184" height="34" viewBox="0 0 184 34" fill="none" xmlns="http://www.w3.org/2000/svg">
<path d="M8.56684 25.216C7.89484 25.216 7.05484 25.192 6.04684 25.144C5.06284 25.096 4.11484 25.024 3.20284 24.928C2.29084 24.832 1.60684 24.724 1.15084 24.604V22.444H9.25084C10.2828 22.444 11.0988 22.3 11.6988 22.012C12.3228 21.724 12.6348 21.052 12.6348 19.996V19.204C12.6348 18.484 12.3948 17.92 11.9148 17.512C11.4348 17.104 10.6428 16.9 9.53884 16.9H6.73084C5.60284 16.9 4.59484 16.756 3.70684 16.468C2.84284 16.156 2.15884 15.64 1.65484 14.92C1.17484 14.2 0.934842 13.228 0.934842 12.004V10.96C0.934842 9.136 1.46284 7.78 2.51884 6.892C3.59884 6.004 5.42284 5.56 7.99084 5.56C8.71084 5.56 9.51484 5.596 10.4028 5.668C11.2908 5.716 12.1428 5.788 12.9588 5.884C13.7988 5.98 14.4708 6.088 14.9748 6.208V8.368H7.34284C6.28684 8.368 5.47084 8.548 4.89484 8.908C4.34284 9.268 4.06684 9.952 4.06684 10.96V11.68C4.06684 12.64 4.35484 13.252 4.93084 13.516C5.53084 13.78 6.33484 13.912 7.34284 13.912H10.2228C12.0228 13.912 13.3908 14.344 14.3268 15.208C15.2868 16.048 15.7668 17.236 15.7668 18.772V20.248C15.7668 21.544 15.4668 22.552 14.8668 23.272C14.2908 23.992 13.4628 24.496 12.3828 24.784C11.3028 25.072 10.0308 25.216 8.56684 25.216ZM37.33 25C35.362 25 33.91 24.52 32.974 23.56C32.062 22.6 31.63 20.944 31.678 18.592L31.822 8.692H28.762V6.352L31.894 5.74L32.434 0.339998H35.278V5.74H40.498V8.692H35.278V18.556C35.278 19.54 35.41 20.284 35.674 20.788C35.938 21.268 36.274 21.604 36.682 21.796C37.09 21.964 37.486 22.072 37.87 22.12L40.246 22.336V25H37.33ZM58.7868 25.216C57.3708 25.216 56.1948 24.796 55.2588 23.956C54.3468 23.092 53.8908 21.904 53.8908 20.392V18.88C53.8908 17.392 54.3948 16.18 55.4028 15.244C56.4348 14.284 57.9828 13.804 60.0468 13.804H66.0588V11.788C66.0588 11.044 65.9268 10.42 65.6628 9.916C65.4228 9.388 64.9548 8.992 64.2588 8.728C63.5868 8.464 62.6028 8.332 61.3068 8.332H55.4028V6.208C56.2668 6.016 57.2748 5.848 58.4268 5.704C59.6028 5.56 60.9708 5.476 62.5308 5.452C64.9068 5.452 66.6948 5.92 67.8948 6.856C69.0948 7.768 69.6948 9.328 69.6948 11.536V25H66.8508L66.2388 22.84C66.1188 22.96 65.8188 23.152 65.3388 23.416C64.8828 23.656 64.2948 23.92 63.5748 24.208C62.8788 24.472 62.1108 24.712 61.2708 24.928C60.4548 25.12 59.6268 25.216 58.7868 25.216ZM60.4428 22.588C60.9228 22.612 61.4628 22.552 62.0628 22.408C62.6868 22.264 63.2988 22.108 63.8988 21.94C64.4988 21.748 65.0028 21.58 65.4108 21.436C65.8188 21.268 66.0348 21.172 66.0588 21.148V15.604L61.0188 15.82C59.7708 15.892 58.8708 16.216 58.3188 16.792C57.7908 17.344 57.5268 18.052 57.5268 18.916V19.78C57.5268 20.836 57.8268 21.568 58.4268 21.976C59.0508 22.384 59.7228 22.588 60.4428 22.588ZM85.3872 25V5.74H88.1592L88.9872 8.98C89.8032 7.996 90.7152 7.168 91.7232 6.496C92.7312 5.824 93.9072 5.488 95.2512 5.488C95.9232 5.488 96.4992 5.56 96.9792 5.704V9.412C96.6432 9.364 96.2832 9.328 95.8992 9.304C95.5392 9.256 95.1792 9.232 94.8192 9.232C93.5952 9.232 92.5392 9.46 91.6512 9.916C90.7872 10.348 89.8992 10.996 88.9872 11.86V25H85.3872ZM118.175 25C116.207 25 114.755 24.52 113.819 23.56C112.907 22.6 112.475 20.944 112.523 18.592L112.667 8.692H109.607V6.352L112.739 5.74L113.279 0.339998H116.123V5.74H121.343V8.692H116.123V18.556C116.123 19.54 116.255 20.284 116.519 20.788C116.783 21.268 117.119 21.604 117.527 21.796C117.935 21.964 118.331 22.072 118.715 22.12L121.091 22.336V25H118.175ZM143.628 25.216C141.66 25.216 140.052 24.94 138.804 24.388C137.556 23.812 136.632 22.816 136.032 21.4C135.432 19.96 135.132 17.944 135.132 15.352C135.132 12.664 135.432 10.612 136.032 9.196C136.656 7.78 137.592 6.808 138.84 6.28C140.088 5.752 141.684 5.488 143.628 5.488C145.548 5.488 147.132 5.764 148.38 6.316C149.652 6.844 150.588 7.816 151.188 9.232C151.812 10.648 152.124 12.688 152.124 15.352C152.124 17.992 151.824 20.02 151.224 21.436C150.624 22.852 149.7 23.836 148.452 24.388C147.204 24.94 145.596 25.216 143.628 25.216ZM143.628 22.264C144.42 22.264 145.116 22.192 145.716 22.048C146.34 21.904 146.856 21.604 147.264 21.148C147.696 20.668 148.008 19.972 148.2 19.06C148.416 18.124 148.524 16.876 148.524 15.316C148.524 13.78 148.416 12.556 148.2 11.644C148.008 10.708 147.696 10.012 147.264 9.556C146.856 9.1 146.34 8.8 145.716 8.656C145.116 8.488 144.42 8.404 143.628 8.404C142.812 8.404 142.092 8.488 141.468 8.656C140.868 8.8 140.364 9.1 139.956 9.556C139.548 10.012 139.248 10.708 139.056 11.644C138.864 12.556 138.768 13.78 138.768 15.316C138.768 16.876 138.864 18.124 139.056 19.06C139.248 19.972 139.548 20.668 139.956 21.148C140.364 21.604 140.868 21.904 141.468 22.048C142.092 22.192 142.812 22.264 143.628 22.264ZM167.322 33.532V5.74H170.274L170.922 7.684C171.594 7.204 172.47 6.724 173.55 6.244C174.654 5.74 175.782 5.488 176.934 5.488C178.59 5.488 179.922 5.932 180.93 6.82C181.938 7.684 182.67 8.872 183.126 10.384C183.582 11.872 183.81 13.528 183.81 15.352C183.81 18.544 183.282 20.992 182.226 22.696C181.17 24.4 179.406 25.252 176.934 25.252C175.926 25.252 174.894 25.108 173.838 24.82C172.782 24.508 171.81 24.1 170.922 23.596V33.532H167.322ZM175.854 22.228C176.67 22.228 177.402 22.024 178.05 21.616C178.698 21.208 179.214 20.512 179.598 19.528C180.006 18.52 180.21 17.128 180.21 15.352C180.21 13.648 180.006 12.292 179.598 11.284C179.19 10.276 178.662 9.556 178.014 9.124C177.366 8.668 176.658 8.44 175.89 8.44C174.882 8.44 173.958 8.596 173.118 8.908C172.302 9.22 171.57 9.544 170.922 9.88V20.86C171.642 21.268 172.434 21.604 173.298 21.868C174.162 22.108 175.014 22.228 175.854 22.228Z" fill="#EEEEEE"/>
</svg>
